<?xml version="1.0" encoding="UTF-8" standalone="no"?>
<svg
   xmlns:dc="http://purl.org/dc/elements/1.1/"
   xmlns:cc="http://creativecommons.org/ns#"
   xmlns:rdf="http://www.w3.org/1999/02/22-rdf-syntax-ns#"
   xmlns:svg="http://www.w3.org/2000/svg"
   xmlns="http://www.w3.org/2000/svg"
   xmlns:sodipodi="http://sodipodi.sourceforge.net/DTD/sodipodi-0.dtd"
   xmlns:inkscape="http://www.inkscape.org/namespaces/inkscape"
   inkscape:version="0.92.2 (5c3e80d, 2017-08-06)"
   inkscape:export-ydpi="96"
   inkscape:export-xdpi="96"
   inkscape:export-filename="C:\Users\Paula\Desktop\Physics 1\High_precision_Low_accuracy.png"
   sodipodi:docname="High_precision_Low_accuracy.svg"
   xml:space="preserve"
   id="Layer_1"
   viewBox="0 0 300 300"
   height="300"
   width="300"
   version="1.0"><metadata
     id="metadata48"><rdf:RDF><cc:Work
         rdf:about=""><dc:format>image/svg+xml</dc:format><dc:type
           rdf:resource="http://purl.org/dc/dcmitype/StillImage" /><dc:title></dc:title></cc:Work></rdf:RDF></metadata><sodipodi:namedview
     inkscape:current-layer="Layer_1"
     inkscape:window-maximized="1"
     inkscape:window-y="-8"
     inkscape:window-x="-8"
     inkscape:cy="173.50873"
     inkscape:cx="58.937534"
     inkscape:zoom="2.1333333"
     showgrid="false"
     id="namedview46"
     inkscape:window-height="1057"
     inkscape:window-width="1920"
     inkscape:pageshadow="2"
     inkscape:pageopacity="0"
     guidetolerance="10"
     gridtolerance="10"
     objecttolerance="10"
     borderopacity="1"
     bordercolor="#666666"
     pagecolor="#ffffff" /><defs
     id="defs32" /><path
     id="path3"
     style="fill:#ff0000;stroke-width:0.345927"
     d="m 129.87273,68.187162 c 0,28.642692 -23.24624,51.888938 -51.888936,51.888938 -28.64269,0 -51.88893,-23.246246 -51.88893,-51.888938 0,-28.642692 23.24624,-51.888934 51.88893,-51.888934 28.642696,0 51.888936,23.246242 51.888936,51.888934 z"
     inkscape:connector-curvature="0" /><g
     transform="matrix(0.34592623,0,0,0.34592623,26.094864,16.298228)"
     id="g5"><path
       id="path7"
       style="fill:#ff0000"
       d="M 24.8,150 C 24.8,219 81,275.2 150,275.2 219,275.2 275.2,219 275.2,150 275.2,81 219,24.8 150,24.8 81,24.8 24.8,81 24.8,150 Z"
       inkscape:connector-curvature="0" /><path
       id="path9"
       style="fill:#ffffff"
       d="m 150,18.9 c -17.7,0 -34.9,3.5 -51,10.3 -7.8,3.3 -15.3,7.4 -22.3,12.1 -6.9,4.7 -13.5,10.1 -19.4,16 -5.9,5.9 -11.3,12.5 -16,19.4 -4.7,7 -8.8,14.5 -12.1,22.3 -6.8,16.2 -10.3,33.3 -10.3,51 0,17.7 3.5,34.9 10.3,51 3.3,7.8 7.4,15.3 12.1,22.3 4.7,6.9 10.1,13.5 16,19.4 5.9,5.9 12.5,11.3 19.4,16 7,4.7 14.5,8.8 22.3,12.1 16.2,6.8 33.3,10.3 51,10.3 17.7,0 34.9,-3.5 51,-10.3 7.8,-3.3 15.3,-7.4 22.3,-12.1 6.9,-4.7 13.5,-10.1 19.4,-16 5.9,-5.9 11.3,-12.5 16,-19.4 4.7,-7 8.8,-14.5 12.1,-22.3 6.8,-16.2 10.3,-33.3 10.3,-51 0,-17.7 -3.5,-34.9 -10.3,-51 C 267.5,91.2 263.4,83.7 258.7,76.7 254,69.8 248.6,63.2 242.7,57.3 236.8,51.4 230.2,46 223.3,41.3 216.3,36.6 208.8,32.5 201,29.2 184.9,22.4 167.7,18.9 150,18.9 Z M 30.7,150 C 30.7,84.1 84.1,30.7 150,30.7 c 65.9,0 119.3,53.4 119.3,119.3 v 0 0 C 269.3,215.9 215.9,269.3 150,269.3 84.1,269.3 30.7,215.9 30.7,150 Z"
       inkscape:connector-curvature="0" /></g><g
     transform="matrix(0.34592623,0,0,0.34592623,26.094864,16.298228)"
     id="g11"><path
       id="path13"
       style="fill:#ff0000"
       d="m 55.5,150 c 0,52.1 42.4,94.5 94.5,94.5 52.1,0 94.5,-42.4 94.5,-94.5 0,-52.1 -42.4,-94.5 -94.5,-94.5 -52.1,0 -94.5,42.4 -94.5,94.5 z"
       inkscape:connector-curvature="0" /><path
       id="path15"
       style="fill:#ffffff"
       d="m 150,49.6 c -13.5,0 -26.7,2.7 -39.1,7.9 C 99,62.6 88.2,69.8 79,79 c -9.2,9.2 -16.5,20 -21.5,31.9 -5.2,12.4 -7.9,25.5 -7.9,39.1 0,13.5 2.7,26.7 7.9,39.1 5.1,12 12.3,22.7 21.5,31.9 9.2,9.2 20,16.5 31.9,21.5 12.4,5.2 25.5,7.9 39.1,7.9 13.5,0 26.7,-2.7 39.1,-7.9 12,-5.1 22.7,-12.3 31.9,-21.5 9.2,-9.2 16.5,-20 21.5,-31.9 5.2,-12.4 7.9,-25.5 7.9,-39.1 0,-13.5 -2.7,-26.7 -7.9,-39.1 C 237.4,99 230.2,88.2 221,79 211.8,69.8 201,62.5 189.1,57.5 176.7,52.3 163.5,49.6 150,49.6 Z M 61.4,150 c 0,-48.9 39.7,-88.6 88.6,-88.6 48.9,0 88.6,39.7 88.6,88.6 v 0 0 c 0,48.9 -39.7,88.6 -88.6,88.6 -48.9,0 -88.6,-39.7 -88.6,-88.6 z"
       inkscape:connector-curvature="0" /></g><g
     transform="matrix(0.34592623,0,0,0.34592623,26.094864,16.298228)"
     id="g17"><path
       id="path19"
       style="fill:#ff0000"
       d="m 85.8,150 c 0,17.1 6.7,33.3 18.8,45.4 12.1,12.1 28.2,18.8 45.4,18.8 17.2,0 33.3,-6.7 45.4,-18.8 12.1,-12.1 18.8,-28.2 18.8,-45.4 0,-35.4 -28.8,-64.2 -64.2,-64.2 -35.4,0 -64.2,28.8 -64.2,64.2 z"
       inkscape:connector-curvature="0" /><path
       id="path21"
       style="fill:#ffffff"
       d="m 150,79.9 c -9.5,0 -18.6,1.9 -27.3,5.5 -8.3,3.5 -15.8,8.6 -22.3,15 -6.4,6.4 -11.5,13.9 -15,22.3 -3.7,8.6 -5.5,17.8 -5.5,27.3 0,9.5 1.9,18.6 5.5,27.3 3.5,8.3 8.6,15.8 15,22.3 6.4,6.4 13.9,11.5 22.3,15 8.6,3.7 17.8,5.5 27.3,5.5 9.5,0 18.6,-1.9 27.3,-5.5 8.3,-3.5 15.8,-8.6 22.3,-15 6.5,-6.4 11.5,-13.9 15,-22.3 3.7,-8.6 5.5,-17.8 5.5,-27.3 0,-9.5 -1.9,-18.6 -5.5,-27.3 -3.5,-8.3 -8.6,-15.8 -15,-22.3 C 193.2,94 185.7,88.9 177.3,85.4 168.6,81.8 159.5,79.9 150,79.9 Z M 91.7,150 c 0,-32.2 26.1,-58.3 58.3,-58.3 32.2,0 58.3,26.1 58.3,58.3 v 0 0 c 0,32.2 -26.1,58.3 -58.3,58.3 -32.2,0 -58.3,-26.1 -58.3,-58.3 z"
       inkscape:connector-curvature="0" /></g><circle
     style="stroke-width:0.345927"
     id="circle23"
     r="2.8711877"
     cy="77.250427"
     cx="47.507698" /><circle
     style="stroke-width:0.345927"
     id="circle25"
     r="2.8711877"
     cy="82.716064"
     cx="42.941475" /><circle
     style="stroke-width:0.345927"
     id="circle27"
     r="2.8711877"
     cy="92.021477"
     cx="48.337929" /><circle
     style="stroke-width:0.345927"
     id="circle29"
     r="2.8711877"
     cy="85.656433"
     cx="52.696602" /><path
     d="m 129.87273,206.18716 c 0,28.64269 -23.24624,51.88894 -51.888936,51.88894 -28.64269,0 -51.88893,-23.24625 -51.88893,-51.88894 0,-28.64269 23.24624,-51.88893 51.88893,-51.88893 28.642696,0 51.888936,23.24624 51.888936,51.88893 z"
     style="fill:#ff0000;stroke-width:0.345927"
     id="path72"
     inkscape:connector-curvature="0" /><g
     id="g78"
     transform="matrix(0.34592623,0,0,0.34592623,26.094864,154.29823)"><path
       d="M 24.8,150 C 24.8,219 81,275.2 150,275.2 219,275.2 275.2,219 275.2,150 275.2,81 219,24.8 150,24.8 81,24.8 24.8,81 24.8,150 Z"
       style="fill:#ff0000"
       id="path74"
       inkscape:connector-curvature="0" /><path
       d="m 150,18.9 c -17.7,0 -34.9,3.5 -51,10.3 -7.8,3.3 -15.3,7.4 -22.3,12.1 -6.9,4.7 -13.5,10.1 -19.4,16 -5.9,5.9 -11.3,12.5 -16,19.4 -4.7,7 -8.8,14.5 -12.1,22.3 -6.8,16.2 -10.3,33.3 -10.3,51 0,17.7 3.5,34.9 10.3,51 3.3,7.8 7.4,15.3 12.1,22.3 4.7,6.9 10.1,13.5 16,19.4 5.9,5.9 12.5,11.3 19.4,16 7,4.7 14.5,8.8 22.3,12.1 16.2,6.8 33.3,10.3 51,10.3 17.7,0 34.9,-3.5 51,-10.3 7.8,-3.3 15.3,-7.4 22.3,-12.1 6.9,-4.7 13.5,-10.1 19.4,-16 5.9,-5.9 11.3,-12.5 16,-19.4 4.7,-7 8.8,-14.5 12.1,-22.3 6.8,-16.2 10.3,-33.3 10.3,-51 0,-17.7 -3.5,-34.9 -10.3,-51 C 267.5,91.2 263.4,83.7 258.7,76.7 254,69.8 248.6,63.2 242.7,57.3 236.8,51.4 230.2,46 223.3,41.3 216.3,36.6 208.8,32.5 201,29.2 184.9,22.4 167.7,18.9 150,18.9 Z M 30.7,150 C 30.7,84.1 84.1,30.7 150,30.7 c 65.9,0 119.3,53.4 119.3,119.3 v 0 0 C 269.3,215.9 215.9,269.3 150,269.3 84.1,269.3 30.7,215.9 30.7,150 Z"
       style="fill:#ffffff"
       id="path76"
       inkscape:connector-curvature="0" /></g><g
     id="g84"
     transform="matrix(0.34592623,0,0,0.34592623,26.094864,154.29823)"><path
       d="m 55.5,150 c 0,52.1 42.4,94.5 94.5,94.5 52.1,0 94.5,-42.4 94.5,-94.5 0,-52.1 -42.4,-94.5 -94.5,-94.5 -52.1,0 -94.5,42.4 -94.5,94.5 z"
       style="fill:#ff0000"
       id="path80"
       inkscape:connector-curvature="0" /><path
       d="m 150,49.6 c -13.5,0 -26.7,2.7 -39.1,7.9 C 99,62.6 88.2,69.8 79,79 c -9.2,9.2 -16.5,20 -21.5,31.9 -5.2,12.4 -7.9,25.5 -7.9,39.1 0,13.5 2.7,26.7 7.9,39.1 5.1,12 12.3,22.7 21.5,31.9 9.2,9.2 20,16.5 31.9,21.5 12.4,5.2 25.5,7.9 39.1,7.9 13.5,0 26.7,-2.7 39.1,-7.9 12,-5.1 22.7,-12.3 31.9,-21.5 9.2,-9.2 16.5,-20 21.5,-31.9 5.2,-12.4 7.9,-25.5 7.9,-39.1 0,-13.5 -2.7,-26.7 -7.9,-39.1 C 237.4,99 230.2,88.2 221,79 211.8,69.8 201,62.5 189.1,57.5 176.7,52.3 163.5,49.6 150,49.6 Z M 61.4,150 c 0,-48.9 39.7,-88.6 88.6,-88.6 48.9,0 88.6,39.7 88.6,88.6 v 0 0 c 0,48.9 -39.7,88.6 -88.6,88.6 -48.9,0 -88.6,-39.7 -88.6,-88.6 z"
       style="fill:#ffffff"
       id="path82"
       inkscape:connector-curvature="0" /></g><g
     id="g90"
     transform="matrix(0.34592623,0,0,0.34592623,26.094864,154.29823)"><path
       d="m 85.8,150 c 0,17.1 6.7,33.3 18.8,45.4 12.1,12.1 28.2,18.8 45.4,18.8 17.2,0 33.3,-6.7 45.4,-18.8 12.1,-12.1 18.8,-28.2 18.8,-45.4 0,-35.4 -28.8,-64.2 -64.2,-64.2 -35.4,0 -64.2,28.8 -64.2,64.2 z"
       style="fill:#ff0000"
       id="path86"
       inkscape:connector-curvature="0" /><path
       d="m 150,79.9 c -9.5,0 -18.6,1.9 -27.3,5.5 -8.3,3.5 -15.8,8.6 -22.3,15 -6.4,6.4 -11.5,13.9 -15,22.3 -3.7,8.6 -5.5,17.8 -5.5,27.3 0,9.5 1.9,18.6 5.5,27.3 3.5,8.3 8.6,15.8 15,22.3 6.4,6.4 13.9,11.5 22.3,15 8.6,3.7 17.8,5.5 27.3,5.5 9.5,0 18.6,-1.9 27.3,-5.5 8.3,-3.5 15.8,-8.6 22.3,-15 6.5,-6.4 11.5,-13.9 15,-22.3 3.7,-8.6 5.5,-17.8 5.5,-27.3 0,-9.5 -1.9,-18.6 -5.5,-27.3 -3.5,-8.3 -8.6,-15.8 -15,-22.3 C 193.2,94 185.7,88.9 177.3,85.4 168.6,81.8 159.5,79.9 150,79.9 Z M 91.7,150 c 0,-32.2 26.1,-58.3 58.3,-58.3 32.2,0 58.3,26.1 58.3,58.3 v 0 0 c 0,32.2 -26.1,58.3 -58.3,58.3 -32.2,0 -58.3,-26.1 -58.3,-58.3 z"
       style="fill:#ffffff"
       id="path88"
       inkscape:connector-curvature="0" /></g><path
     id="path100"
     style="fill:#ff0000;stroke-width:0.345927"
     d="m 269.87273,206.18716 c 0,28.64269 -23.24624,51.88894 -51.88894,51.88894 -28.64269,0 -51.88893,-23.24625 -51.88893,-51.88894 0,-28.64269 23.24624,-51.88893 51.88893,-51.88893 28.6427,0 51.88894,23.24624 51.88894,51.88893 z"
     inkscape:connector-curvature="0" /><g
     transform="matrix(0.34592623,0,0,0.34592623,166.09486,154.29823)"
     id="g106"><path
       id="path102"
       style="fill:#ff0000"
       d="M 24.8,150 C 24.8,219 81,275.2 150,275.2 219,275.2 275.2,219 275.2,150 275.2,81 219,24.8 150,24.8 81,24.8 24.8,81 24.8,150 Z"
       inkscape:connector-curvature="0" /><path
       id="path104"
       style="fill:#ffffff"
       d="m 150,18.9 c -17.7,0 -34.9,3.5 -51,10.3 -7.8,3.3 -15.3,7.4 -22.3,12.1 -6.9,4.7 -13.5,10.1 -19.4,16 -5.9,5.9 -11.3,12.5 -16,19.4 -4.7,7 -8.8,14.5 -12.1,22.3 -6.8,16.2 -10.3,33.3 -10.3,51 0,17.7 3.5,34.9 10.3,51 3.3,7.8 7.4,15.3 12.1,22.3 4.7,6.9 10.1,13.5 16,19.4 5.9,5.9 12.5,11.3 19.4,16 7,4.7 14.5,8.8 22.3,12.1 16.2,6.8 33.3,10.3 51,10.3 17.7,0 34.9,-3.5 51,-10.3 7.8,-3.3 15.3,-7.4 22.3,-12.1 6.9,-4.7 13.5,-10.1 19.4,-16 5.9,-5.9 11.3,-12.5 16,-19.4 4.7,-7 8.8,-14.5 12.1,-22.3 6.8,-16.2 10.3,-33.3 10.3,-51 0,-17.7 -3.5,-34.9 -10.3,-51 C 267.5,91.2 263.4,83.7 258.7,76.7 254,69.8 248.6,63.2 242.7,57.3 236.8,51.4 230.2,46 223.3,41.3 216.3,36.6 208.8,32.5 201,29.2 184.9,22.4 167.7,18.9 150,18.9 Z M 30.7,150 C 30.7,84.1 84.1,30.7 150,30.7 c 65.9,0 119.3,53.4 119.3,119.3 v 0 0 C 269.3,215.9 215.9,269.3 150,269.3 84.1,269.3 30.7,215.9 30.7,150 Z"
       inkscape:connector-curvature="0" /></g><g
     transform="matrix(0.34592623,0,0,0.34592623,166.09486,154.29823)"
     id="g112"><path
       id="path108"
       style="fill:#ff0000"
       d="m 55.5,150 c 0,52.1 42.4,94.5 94.5,94.5 52.1,0 94.5,-42.4 94.5,-94.5 0,-52.1 -42.4,-94.5 -94.5,-94.5 -52.1,0 -94.5,42.4 -94.5,94.5 z"
       inkscape:connector-curvature="0" /><path
       id="path110"
       style="fill:#ffffff"
       d="m 150,49.6 c -13.5,0 -26.7,2.7 -39.1,7.9 C 99,62.6 88.2,69.8 79,79 c -9.2,9.2 -16.5,20 -21.5,31.9 -5.2,12.4 -7.9,25.5 -7.9,39.1 0,13.5 2.7,26.7 7.9,39.1 5.1,12 12.3,22.7 21.5,31.9 9.2,9.2 20,16.5 31.9,21.5 12.4,5.2 25.5,7.9 39.1,7.9 13.5,0 26.7,-2.7 39.1,-7.9 12,-5.1 22.7,-12.3 31.9,-21.5 9.2,-9.2 16.5,-20 21.5,-31.9 5.2,-12.4 7.9,-25.5 7.9,-39.1 0,-13.5 -2.7,-26.7 -7.9,-39.1 C 237.4,99 230.2,88.2 221,79 211.8,69.8 201,62.5 189.1,57.5 176.7,52.3 163.5,49.6 150,49.6 Z M 61.4,150 c 0,-48.9 39.7,-88.6 88.6,-88.6 48.9,0 88.6,39.7 88.6,88.6 v 0 0 c 0,48.9 -39.7,88.6 -88.6,88.6 -48.9,0 -88.6,-39.7 -88.6,-88.6 z"
       inkscape:connector-curvature="0" /></g><g
     transform="matrix(0.34592623,0,0,0.34592623,166.09486,154.29823)"
     id="g118"><path
       id="path114"
       style="fill:#ff0000"
       d="m 85.8,150 c 0,17.1 6.7,33.3 18.8,45.4 12.1,12.1 28.2,18.8 45.4,18.8 17.2,0 33.3,-6.7 45.4,-18.8 12.1,-12.1 18.8,-28.2 18.8,-45.4 0,-35.4 -28.8,-64.2 -64.2,-64.2 -35.4,0 -64.2,28.8 -64.2,64.2 z"
       inkscape:connector-curvature="0" /><path
       id="path116"
       style="fill:#ffffff"
       d="m 150,79.9 c -9.5,0 -18.6,1.9 -27.3,5.5 -8.3,3.5 -15.8,8.6 -22.3,15 -6.4,6.4 -11.5,13.9 -15,22.3 -3.7,8.6 -5.5,17.8 -5.5,27.3 0,9.5 1.9,18.6 5.5,27.3 3.5,8.3 8.6,15.8 15,22.3 6.4,6.4 13.9,11.5 22.3,15 8.6,3.7 17.8,5.5 27.3,5.5 9.5,0 18.6,-1.9 27.3,-5.5 8.3,-3.5 15.8,-8.6 22.3,-15 6.5,-6.4 11.5,-13.9 15,-22.3 3.7,-8.6 5.5,-17.8 5.5,-27.3 0,-9.5 -1.9,-18.6 -5.5,-27.3 -3.5,-8.3 -8.6,-15.8 -15,-22.3 C 193.2,94 185.7,88.9 177.3,85.4 168.6,81.8 159.5,79.9 150,79.9 Z M 91.7,150 c 0,-32.2 26.1,-58.3 58.3,-58.3 32.2,0 58.3,26.1 58.3,58.3 v 0 0 c 0,32.2 -26.1,58.3 -58.3,58.3 -32.2,0 -58.3,-26.1 -58.3,-58.3 z"
       inkscape:connector-curvature="0" /></g><path
     d="m 269.87273,68.18716 c 0,28.64269 -23.24624,51.88894 -51.88894,51.88894 -28.64269,0 -51.88893,-23.24625 -51.88893,-51.88894 0,-28.64269 23.24624,-51.88893 51.88893,-51.88893 28.6427,0 51.88894,23.24624 51.88894,51.88893 z"
     style="fill:#ff0000;stroke-width:0.345927"
     id="path128"
     inkscape:connector-curvature="0" /><g
     id="g134"
     transform="matrix(0.34592623,0,0,0.34592623,166.09486,16.29823)"><path
       d="M 24.8,150 C 24.8,219 81,275.2 150,275.2 219,275.2 275.2,219 275.2,150 275.2,81 219,24.8 150,24.8 81,24.8 24.8,81 24.8,150 Z"
       style="fill:#ff0000"
       id="path130"
       inkscape:connector-curvature="0" /><path
       d="m 150,18.9 c -17.7,0 -34.9,3.5 -51,10.3 -7.8,3.3 -15.3,7.4 -22.3,12.1 -6.9,4.7 -13.5,10.1 -19.4,16 -5.9,5.9 -11.3,12.5 -16,19.4 -4.7,7 -8.8,14.5 -12.1,22.3 -6.8,16.2 -10.3,33.3 -10.3,51 0,17.7 3.5,34.9 10.3,51 3.3,7.8 7.4,15.3 12.1,22.3 4.7,6.9 10.1,13.5 16,19.4 5.9,5.9 12.5,11.3 19.4,16 7,4.7 14.5,8.8 22.3,12.1 16.2,6.8 33.3,10.3 51,10.3 17.7,0 34.9,-3.5 51,-10.3 7.8,-3.3 15.3,-7.4 22.3,-12.1 6.9,-4.7 13.5,-10.1 19.4,-16 5.9,-5.9 11.3,-12.5 16,-19.4 4.7,-7 8.8,-14.5 12.1,-22.3 6.8,-16.2 10.3,-33.3 10.3,-51 0,-17.7 -3.5,-34.9 -10.3,-51 C 267.5,91.2 263.4,83.7 258.7,76.7 254,69.8 248.6,63.2 242.7,57.3 236.8,51.4 230.2,46 223.3,41.3 216.3,36.6 208.8,32.5 201,29.2 184.9,22.4 167.7,18.9 150,18.9 Z M 30.7,150 C 30.7,84.1 84.1,30.7 150,30.7 c 65.9,0 119.3,53.4 119.3,119.3 v 0 0 C 269.3,215.9 215.9,269.3 150,269.3 84.1,269.3 30.7,215.9 30.7,150 Z"
       style="fill:#ffffff"
       id="path132"
       inkscape:connector-curvature="0" /></g><g
     id="g140"
     transform="matrix(0.34592623,0,0,0.34592623,166.09486,16.29823)"><path
       d="m 55.5,150 c 0,52.1 42.4,94.5 94.5,94.5 52.1,0 94.5,-42.4 94.5,-94.5 0,-52.1 -42.4,-94.5 -94.5,-94.5 -52.1,0 -94.5,42.4 -94.5,94.5 z"
       style="fill:#ff0000"
       id="path136"
       inkscape:connector-curvature="0" /><path
       d="m 150,49.6 c -13.5,0 -26.7,2.7 -39.1,7.9 C 99,62.6 88.2,69.8 79,79 c -9.2,9.2 -16.5,20 -21.5,31.9 -5.2,12.4 -7.9,25.5 -7.9,39.1 0,13.5 2.7,26.7 7.9,39.1 5.1,12 12.3,22.7 21.5,31.9 9.2,9.2 20,16.5 31.9,21.5 12.4,5.2 25.5,7.9 39.1,7.9 13.5,0 26.7,-2.7 39.1,-7.9 12,-5.1 22.7,-12.3 31.9,-21.5 9.2,-9.2 16.5,-20 21.5,-31.9 5.2,-12.4 7.9,-25.5 7.9,-39.1 0,-13.5 -2.7,-26.7 -7.9,-39.1 C 237.4,99 230.2,88.2 221,79 211.8,69.8 201,62.5 189.1,57.5 176.7,52.3 163.5,49.6 150,49.6 Z M 61.4,150 c 0,-48.9 39.7,-88.6 88.6,-88.6 48.9,0 88.6,39.7 88.6,88.6 v 0 0 c 0,48.9 -39.7,88.6 -88.6,88.6 -48.9,0 -88.6,-39.7 -88.6,-88.6 z"
       style="fill:#ffffff"
       id="path138"
       inkscape:connector-curvature="0" /></g><g
     id="g146"
     transform="matrix(0.34592623,0,0,0.34592623,166.09486,16.29823)"><path
       d="m 85.8,150 c 0,17.1 6.7,33.3 18.8,45.4 12.1,12.1 28.2,18.8 45.4,18.8 17.2,0 33.3,-6.7 45.4,-18.8 12.1,-12.1 18.8,-28.2 18.8,-45.4 0,-35.4 -28.8,-64.2 -64.2,-64.2 -35.4,0 -64.2,28.8 -64.2,64.2 z"
       style="fill:#ff0000"
       id="path142"
       inkscape:connector-curvature="0" /><path
       d="m 150,79.9 c -9.5,0 -18.6,1.9 -27.3,5.5 -8.3,3.5 -15.8,8.6 -22.3,15 -6.4,6.4 -11.5,13.9 -15,22.3 -3.7,8.6 -5.5,17.8 -5.5,27.3 0,9.5 1.9,18.6 5.5,27.3 3.5,8.3 8.6,15.8 15,22.3 6.4,6.4 13.9,11.5 22.3,15 8.6,3.7 17.8,5.5 27.3,5.5 9.5,0 18.6,-1.9 27.3,-5.5 8.3,-3.5 15.8,-8.6 22.3,-15 6.5,-6.4 11.5,-13.9 15,-22.3 3.7,-8.6 5.5,-17.8 5.5,-27.3 0,-9.5 -1.9,-18.6 -5.5,-27.3 -3.5,-8.3 -8.6,-15.8 -15,-22.3 C 193.2,94 185.7,88.9 177.3,85.4 168.6,81.8 159.5,79.9 150,79.9 Z M 91.7,150 c 0,-32.2 26.1,-58.3 58.3,-58.3 32.2,0 58.3,26.1 58.3,58.3 v 0 0 c 0,32.2 -26.1,58.3 -58.3,58.3 -32.2,0 -58.3,-26.1 -58.3,-58.3 z"
       style="fill:#ffffff"
       id="path144"
       inkscape:connector-curvature="0" /></g><circle
     cx="229.46082"
     cy="187.1098"
     r="2.8711877"
     id="circle148"
     style="stroke-width:0.345927" /><circle
     cx="194.42584"
     cy="205.46606"
     r="2.8711877"
     id="circle150"
     style="stroke-width:0.345927" /><circle
     cx="217.16605"
     cy="224.38086"
     r="2.8711877"
     id="circle152"
     style="stroke-width:0.345927" /><circle
     cx="232.07159"
     cy="209.10956"
     r="2.8711877"
     id="circle154"
     style="stroke-width:0.345927" /><circle
     style="stroke-width:0.345927"
     id="circle158"
     r="2.8711877"
     cy="59.766052"
     cx="216.80457" /><circle
     style="stroke-width:0.345927"
     id="circle160"
     r="2.8711877"
     cy="65.231689"
     cx="212.23834" /><circle
     style="stroke-width:0.345927"
     id="circle162"
     r="2.8711877"
     cy="74.537109"
     cx="217.6348" /><circle
     style="stroke-width:0.345927"
     id="circle164"
     r="2.8711877"
     cy="68.172058"
     cx="221.99347" /><text
     id="text168"
     y="-3.2812428"
     x="23.4375"
     style="font-style:normal;font-weight:normal;font-size:40px;line-height:1.25;font-family:sans-serif;fill:#000000;fill-opacity:1;stroke:none"
     xml:space="preserve"><tspan
       style="font-style:normal;font-variant:normal;font-weight:normal;font-stretch:normal;font-size:13.33329964px;font-family:sans-serif;-inkscape-font-specification:'sans-serif, Normal';font-variant-ligatures:normal;font-variant-caps:normal;font-variant-numeric:normal"
       y="33.211971"
       x="23.4375"
       id="tspan166"
       sodipodi:role="line" /><tspan
       id="tspan170"
       style="font-style:normal;font-variant:normal;font-weight:normal;font-stretch:normal;font-size:13.33329964px;font-family:sans-serif;-inkscape-font-specification:'sans-serif, Normal';font-variant-ligatures:normal;font-variant-caps:normal;font-variant-numeric:normal"
       y="83.211967"
       x="23.4375"
       sodipodi:role="line" /><tspan
       id="tspan172"
       style="font-style:normal;font-variant:normal;font-weight:bold;font-stretch:normal;font-size:13.33329964px;font-family:sans-serif;-inkscape-font-specification:'sans-serif, Normal';font-variant-ligatures:normal;font-variant-caps:normal;font-variant-numeric:normal"
       y="133.21198"
       x="23.4375"
       sodipodi:role="line">High Precision</tspan></text>
<text
     xml:space="preserve"
     style="font-style:normal;font-weight:normal;font-size:40px;line-height:1.25;font-family:sans-serif;fill:#000000;fill-opacity:1;stroke:none"
     x="27.854935"
     y="135.71939"
     id="text168-8"><tspan
       sodipodi:role="line"
       id="tspan166-4"
       x="27.854935"
       y="172.2126"
       style="font-style:normal;font-variant:normal;font-weight:normal;font-stretch:normal;font-size:13.33329964px;font-family:sans-serif;-inkscape-font-specification:'sans-serif, Normal';font-variant-ligatures:normal;font-variant-caps:normal;font-variant-numeric:normal" /><tspan
       sodipodi:role="line"
       x="27.854935"
       y="222.2126"
       style="font-style:normal;font-variant:normal;font-weight:normal;font-stretch:normal;font-size:13.33329964px;font-family:sans-serif;-inkscape-font-specification:'sans-serif, Normal';font-variant-ligatures:normal;font-variant-caps:normal;font-variant-numeric:normal"
       id="tspan170-0" /><tspan
       sodipodi:role="line"
       x="27.854935"
       y="272.21262"
       style="font-style:normal;font-variant:normal;font-weight:bold;font-stretch:normal;font-size:13.33329964px;font-family:sans-serif;-inkscape-font-specification:'sans-serif, Normal';font-variant-ligatures:normal;font-variant-caps:normal;font-variant-numeric:normal"
       id="tspan172-2">Low Precision</tspan></text>
<text
     xml:space="preserve"
     style="font-style:normal;font-weight:normal;font-size:40px;line-height:1.25;font-family:sans-serif;fill:#000000;fill-opacity:1;stroke:none"
     x="159.80806"
     y="-0.21810962"
     id="text168-1"><tspan
       sodipodi:role="line"
       id="tspan166-5"
       x="159.80806"
       y="36.275105"
       style="font-style:normal;font-variant:normal;font-weight:normal;font-stretch:normal;font-size:13.33329964px;font-family:sans-serif;-inkscape-font-specification:'sans-serif, Normal';font-variant-ligatures:normal;font-variant-caps:normal;font-variant-numeric:normal" /><tspan
       sodipodi:role="line"
       x="159.80806"
       y="86.275101"
       style="font-style:normal;font-variant:normal;font-weight:normal;font-stretch:normal;font-size:13.33329964px;font-family:sans-serif;-inkscape-font-specification:'sans-serif, Normal';font-variant-ligatures:normal;font-variant-caps:normal;font-variant-numeric:normal"
       id="tspan170-3" /><tspan
       sodipodi:role="line"
       x="159.80806"
       y="136.2751"
       style="font-style:normal;font-variant:normal;font-weight:bold;font-stretch:normal;font-size:13.33329964px;font-family:sans-serif;-inkscape-font-specification:'sans-serif, Normal';font-variant-ligatures:normal;font-variant-caps:normal;font-variant-numeric:normal"
       id="tspan172-0">High Precision</tspan></text>
<text
     id="text168-8-6"
     y="136.18814"
     x="170.35493"
     style="font-style:normal;font-weight:normal;font-size:40px;line-height:1.25;font-family:sans-serif;fill:#000000;fill-opacity:1;stroke:none"
     xml:space="preserve"><tspan
       style="font-style:normal;font-variant:normal;font-weight:normal;font-stretch:normal;font-size:13.33329964px;font-family:sans-serif;-inkscape-font-specification:'sans-serif, Normal';font-variant-ligatures:normal;font-variant-caps:normal;font-variant-numeric:normal"
       y="172.68135"
       x="170.35493"
       id="tspan166-4-4"
       sodipodi:role="line" /><tspan
       id="tspan170-0-7"
       style="font-style:normal;font-variant:normal;font-weight:normal;font-stretch:normal;font-size:13.33329964px;font-family:sans-serif;-inkscape-font-specification:'sans-serif, Normal';font-variant-ligatures:normal;font-variant-caps:normal;font-variant-numeric:normal"
       y="222.68135"
       x="170.35493"
       sodipodi:role="line" /><tspan
       id="tspan172-2-4"
       style="font-style:normal;font-variant:normal;font-weight:bold;font-stretch:normal;font-size:13.33329964px;font-family:sans-serif;-inkscape-font-specification:'sans-serif, Normal';font-variant-ligatures:normal;font-variant-caps:normal;font-variant-numeric:normal"
       y="272.68137"
       x="170.35493"
       sodipodi:role="line">Low Precision</tspan></text>
<text
     id="text168-8-8"
     y="147.67252"
     x="27.854935"
     style="font-style:normal;font-weight:normal;font-size:40px;line-height:1.25;font-family:sans-serif;fill:#000000;fill-opacity:1;stroke:none"
     xml:space="preserve"><tspan
       style="font-style:normal;font-variant:normal;font-weight:normal;font-stretch:normal;font-size:13.33329964px;font-family:sans-serif;-inkscape-font-specification:'sans-serif, Normal';font-variant-ligatures:normal;font-variant-caps:normal;font-variant-numeric:normal"
       y="184.16573"
       x="27.854935"
       id="tspan166-4-45"
       sodipodi:role="line" /><tspan
       id="tspan170-0-73"
       style="font-style:normal;font-variant:normal;font-weight:normal;font-stretch:normal;font-size:13.33329964px;font-family:sans-serif;-inkscape-font-specification:'sans-serif, Normal';font-variant-ligatures:normal;font-variant-caps:normal;font-variant-numeric:normal"
       y="234.16573"
       x="27.854935"
       sodipodi:role="line" /><tspan
       id="tspan172-2-9"
       style="font-style:normal;font-variant:normal;font-weight:bold;font-stretch:normal;font-size:13.33329964px;font-family:sans-serif;-inkscape-font-specification:'sans-serif, Normal';font-variant-ligatures:normal;font-variant-caps:normal;font-variant-numeric:normal"
       y="284.16574"
       x="27.854935"
       sodipodi:role="line">Low Accuracy</tspan></text>
<text
     inkscape:export-ydpi="96"
     inkscape:export-xdpi="96"
     xml:space="preserve"
     style="font-style:normal;font-weight:normal;font-size:40px;line-height:1.25;font-family:sans-serif;fill:#000000;fill-opacity:1;stroke:none"
     x="168.71431"
     y="147.43814"
     id="text264"><tspan
       sodipodi:role="line"
       id="tspan258"
       x="168.71431"
       y="183.93135"
       style="font-style:normal;font-variant:normal;font-weight:normal;font-stretch:normal;font-size:13.33329964px;font-family:sans-serif;-inkscape-font-specification:'sans-serif, Normal';font-variant-ligatures:normal;font-variant-caps:normal;font-variant-numeric:normal" /><tspan
       sodipodi:role="line"
       x="168.71431"
       y="233.93135"
       style="font-style:normal;font-variant:normal;font-weight:normal;font-stretch:normal;font-size:13.33329964px;font-family:sans-serif;-inkscape-font-specification:'sans-serif, Normal';font-variant-ligatures:normal;font-variant-caps:normal;font-variant-numeric:normal"
       id="tspan260" /><tspan
       sodipodi:role="line"
       x="168.71431"
       y="283.93137"
       style="font-style:normal;font-variant:normal;font-weight:bold;font-stretch:normal;font-size:13.33329964px;font-family:sans-serif;-inkscape-font-specification:'sans-serif, Normal';font-variant-ligatures:normal;font-variant-caps:normal;font-variant-numeric:normal"
       id="tspan262">High Accuracy</tspan></text>
<text
     id="text272"
     y="14.781891"
     x="160.04243"
     style="font-style:normal;font-weight:normal;font-size:40px;line-height:1.25;font-family:sans-serif;fill:#000000;fill-opacity:1;stroke:none"
     xml:space="preserve"><tspan
       style="font-style:normal;font-variant:normal;font-weight:normal;font-stretch:normal;font-size:13.33329964px;font-family:sans-serif;-inkscape-font-specification:'sans-serif, Normal';font-variant-ligatures:normal;font-variant-caps:normal;font-variant-numeric:normal"
       y="51.275105"
       x="160.04243"
       id="tspan266"
       sodipodi:role="line" /><tspan
       id="tspan268"
       style="font-style:normal;font-variant:normal;font-weight:normal;font-stretch:normal;font-size:13.33329964px;font-family:sans-serif;-inkscape-font-specification:'sans-serif, Normal';font-variant-ligatures:normal;font-variant-caps:normal;font-variant-numeric:normal"
       y="101.2751"
       x="160.04243"
       sodipodi:role="line" /><tspan
       id="tspan270"
       style="font-style:normal;font-variant:normal;font-weight:bold;font-stretch:normal;font-size:13.33329964px;font-family:sans-serif;-inkscape-font-specification:'sans-serif, Normal';font-variant-ligatures:normal;font-variant-caps:normal;font-variant-numeric:normal"
       y="151.2751"
       x="160.04243"
       sodipodi:role="line">High Accuracy</tspan></text>
<text
     xml:space="preserve"
     style="font-style:normal;font-weight:normal;font-size:40px;line-height:1.25;font-family:sans-serif;fill:#000000;fill-opacity:1;stroke:none"
     x="27.854935"
     y="10.56314"
     id="text280"><tspan
       sodipodi:role="line"
       id="tspan274"
       x="27.854935"
       y="47.056351"
       style="font-style:normal;font-variant:normal;font-weight:normal;font-stretch:normal;font-size:13.33329964px;font-family:sans-serif;-inkscape-font-specification:'sans-serif, Normal';font-variant-ligatures:normal;font-variant-caps:normal;font-variant-numeric:normal" /><tspan
       sodipodi:role="line"
       x="27.854935"
       y="97.056351"
       style="font-style:normal;font-variant:normal;font-weight:normal;font-stretch:normal;font-size:13.33329964px;font-family:sans-serif;-inkscape-font-specification:'sans-serif, Normal';font-variant-ligatures:normal;font-variant-caps:normal;font-variant-numeric:normal"
       id="tspan276" /><tspan
       sodipodi:role="line"
       x="27.854935"
       y="147.05635"
       style="font-style:normal;font-variant:normal;font-weight:bold;font-stretch:normal;font-size:13.33329964px;font-family:sans-serif;-inkscape-font-specification:'sans-serif, Normal';font-variant-ligatures:normal;font-variant-caps:normal;font-variant-numeric:normal"
       id="tspan278">Low Accuracy</tspan></text>
<circle
     style="stroke-width:0.345927"
     id="circle306"
     r="2.8711877"
     cy="185.1098"
     cx="211.46082" /><circle
     cx="207.46082"
     cy="205.1098"
     r="2.8711877"
     id="circle308"
     style="stroke-width:0.345927" /><circle
     style="stroke-width:0.345927"
     id="circle310"
     r="2.8711877"
     cy="213.1098"
     cx="69.460823" /><circle
     style="stroke-width:0.345927"
     id="circle312"
     r="2.8711877"
     cy="231.46606"
     cx="34.425842" /><circle
     style="stroke-width:0.345927"
     id="circle314"
     r="2.8711877"
     cy="250.38086"
     cx="57.166054" /><circle
     style="stroke-width:0.345927"
     id="circle316"
     r="2.8711877"
     cy="235.10956"
     cx="72.071587" /><circle
     cx="51.460823"
     cy="211.1098"
     r="2.8711877"
     id="circle318"
     style="stroke-width:0.345927" /><circle
     style="stroke-width:0.345927"
     id="circle320"
     r="2.8711877"
     cy="231.1098"
     cx="47.460823" /><rect
     inkscape:export-ydpi="96"
     inkscape:export-xdpi="96"
     style="fill:none"
     y="5.625"
     x="2.34375"
     height="290.625"
     width="293.90625"
     id="rect322" /><rect
     inkscape:export-ydpi="96"
     inkscape:export-xdpi="96"
     y="5.625"
     x="2.34375"
     height="290.625"
     width="293.90625"
     id="rect1147"
     style="fill:none" /></svg>